<?xml version="1.0" encoding="UTF-8"?>
<!-- Created with Inkscape (http://www.inkscape.org/) -->
<svg width="56.502mm" height="20.154mm" version="1.1" viewBox="0 0 56.502 20.154" xmlns="http://www.w3.org/2000/svg" xmlns:cc="http://creativecommons.org/ns#" xmlns:dc="http://purl.org/dc/elements/1.1/" xmlns:osb="http://www.openswatchbook.org/uri/2009/osb" xmlns:rdf="http://www.w3.org/1999/02/22-rdf-syntax-ns#">
 <metadata>
  <rdf:RDF>
   <cc:Work rdf:about="">
    <dc:format>image/svg+xml</dc:format>
    <dc:type rdf:resource="http://purl.org/dc/dcmitype/StillImage"/>
    <dc:title/>
   </cc:Work>
  </rdf:RDF>
 </metadata>
 <g fill="#143241">
  <path d="m36.01 12.047q-0.21167 0.51858-0.37042 1.2382-0.15875 0.70908-0.26458 1.5028-0.09525 0.79375-0.14817 1.6087-0.04233 0.8255-0.03175 1.5452 0.02117 0.71967 0.09525 1.2806t0.21167 0.84667q0.04233 0.09525-0.08467 0.08467-0.11642-0.01058-0.29633-0.10583-0.17992-0.09525-0.37042-0.24342-0.17992-0.14817-0.24342-0.32808-0.10583-0.26458-0.10583-0.8255 0.01058-0.56092 0.07408-1.27 0.07408-0.70908 0.1905-1.4711 0.11642-0.762 0.23283-1.4182-0.127 0.29633-0.34925 0.62442t-0.58208 0.60325q-0.34925 0.27517-0.85725 0.45508-0.508 0.17992-1.2065 0.1905-0.91017 0.01058-1.6828-0.46567-0.762-0.46567-1.3335-1.2488-0.5715-0.79375-0.92075-1.8309-0.33867-1.0372-0.40217-2.159-0.05292-0.92075 0.0635-1.8521 0.11642-0.93133 0.40217-1.7886 0.28575-0.86783 0.74083-1.6087 0.45508-0.75142 1.0901-1.3018 0.635-0.55033 1.4393-0.84667 0.80433-0.30692 1.7992-0.28575 0.89958 0.02117 1.5134 0.41275 0.62442 0.381 1.0054 0.9525t0.55033 1.2382q0.17992 0.66675 0.1905 1.27 0.01058 0.77258-0.16933 1.4076-0.16933 0.635-0.47625 1.1324-0.29633 0.48683-0.67733 0.83608-0.381 0.34925-0.78317 0.5715-0.40217 0.21167-0.78317 0.29633-0.37042 0.08467-0.64558 0.04233-0.03175 0-0.15875-0.14817-0.127-0.15875-0.254-0.33867-0.127-0.17992-0.1905-0.32808t0.05292-0.13758q0.70908 0.03175 1.3123-0.26458 0.61383-0.29633 1.0583-0.78317 0.4445-0.49742 0.68792-1.1112 0.254-0.62442 0.24342-1.2277-0.01058-0.762-0.17992-1.3758-0.16933-0.62442-0.49742-1.0478-0.3175-0.43392-0.78317-0.66675-0.46567-0.23283-1.0689-0.23283-0.75142 0-1.3652 0.29633-0.60325 0.29633-1.0795 0.81492-0.46567 0.51858-0.80433 1.2171-0.32808 0.68792-0.55033 1.4817-0.21167 0.79375-0.3175 1.651-0.09525 0.84667-0.08467 1.6827 0.01058 0.99483 0.16933 1.9368 0.16933 0.94192 0.51858 1.6828 0.35983 0.74083 0.92075 1.1959 0.56092 0.46567 1.3758 0.48683 0.5715 0.02117 1.0478-0.20108 0.47625-0.21167 0.87842-0.62442 0.40217-0.42333 0.74083-1.0266 0.34925-0.61383 0.66675-1.397-0.16933-0.01058-0.73025 0.14817-0.56092 0.15875-1.397 0.64558-0.04233 0-0.05292-0.11642 0-0.127 0.01058-0.27517 0.02117-0.14817 0.05292-0.26458 0.04233-0.127 0.09525-0.127 0.03175-0.07408 0.26458-0.16933 0.23283-0.09525 0.56092-0.17992 0.32808-0.09525 0.68792-0.16933 0.37042-0.08467 0.67733-0.127 0.30692-0.04233 0.49742-0.04233 0.20108 0 0.17992 0.05292z"/>
  <path d="m36.987 9.5806q0.0635-0.01058 0.21167 0.01058 0.14817 0.01058 0.28575 0.0635 0.14817 0.05292 0.254 0.16933 0.10583 0.10583 0.09525 0.29633-0.01058 0.04233-0.03175 0.40217-0.02117 0.34925-0.05292 0.86783-0.02117 0.508-0.05292 1.0901-0.02117 0.58208-0.03175 1.0795-0.01058 0.48683 0 0.8255 0.01058 0.32808 0.0635 0.32808 0.11642 0.01058 0.23283-0.15875 0.127-0.16933 0.24342-0.42333 0.11642-0.254 0.21167-0.55033 0.10583-0.29633 0.1905-0.55033 0.08467-0.254 0.127-0.42333 0.05292-0.16933 0.0635-0.16933t0.05292 0.01058q0.05292 0 0.10583 0.01058 0.05292 0 0.09525 0.02117 0.04233 0.01058 0.04233 0.04233 0 0.02117-0.0635 0.24342-0.05292 0.22225-0.15875 0.55033-0.09525 0.3175-0.254 0.6985-0.14817 0.37042-0.33867 0.68792-0.1905 0.30692-0.42333 0.51858-0.23283 0.20108-0.48683 0.1905-0.17992 0-0.30692-0.10583-0.11642-0.11642-0.1905-0.26458-0.0635-0.14817-0.10583-0.30692-0.03175-0.15875-0.04233-0.254-0.01058-0.0635 0-0.4445 0.01058-0.39158 0.03175-0.93133 0.01058-0.55033 0.04233-1.1642t0.0635-1.1324q0.03175-0.52917 0.0635-0.86783 0.03175-0.34925 0.0635-0.35983zm-0.20108-1.6828q0-0.35983 0.1905-0.61383 0.20108-0.254 0.47625-0.254 0.27517 0 0.46567 0.254t0.1905 0.61383q0 0.35983-0.1905 0.61383t-0.46567 0.254q-0.27517 0-0.47625-0.254-0.1905-0.254-0.1905-0.61383z"/>
  <path d="m40.498 7.8873q0.05292 0 0.04233 0.10583 0 0.09525-0.02117 0.21167-0.03175 0.13758-0.08467 0.32808l-0.83608 0.02117q-0.02117 0.94192-0.03175 1.9685-0.01058 1.016-0.02117 2.0108 0 0.99483 0 1.9262 0 0.92075-0.01058 1.6722 0 0.75142 0 1.27t0 0.70908-0.13758 0.24342q-0.127 0.0635-0.28575 0.04233-0.14817-0.02117-0.28575-0.10583-0.13758-0.07408-0.14817-0.15875-0.01058-0.04233-0.01058-0.55033 0-0.508 0-1.3123 0-0.80433 0.01058-1.8098 0.01058-1.016 0.01058-2.0638 0.01058-1.0478 0.01058-2.0426 0.01058-0.99483 0.01058-1.778l-0.49742 0.01058q-0.03175 0-0.05292-0.05292-0.03175-0.0635-0.03175-0.13758-0.01058-0.08467 0.02117-0.15875 0.02117-0.07408 0.10583-0.09525l0.45508-0.05292v-1.2382q-0.02117-0.29633 0.02117-0.68792 0.04233-0.39158 0.16933-0.74083 0.13758-0.34925 0.39158-0.59267t0.65617-0.24342q0.381 0.01058 0.62442 0.20108 0.24342 0.1905 0.30692 0.508 0.08467 0.49742 0.11642 0.84667 0.03175 0.33867 0.04233 0.45508 0 0.05292-0.127 0.07408-0.11642 0.01058-0.27517-0.01058-0.14817-0.02117-0.28575-0.07408-0.127-0.0635-0.13758-0.15875-0.01058-0.22225-0.01058-0.43392 0-0.22225-0.01058-0.39158-0.01058-0.17992-0.05292-0.28575-0.04233-0.11642-0.127-0.11642-0.08467-0.01058-0.20108 0.02117-0.10583 0.03175-0.11642 0.26458-0.03175 0.48683-0.05292 1.1324-0.01058 0.635-0.03175 1.3758 0.21167-0.02117 0.43392-0.04233 0.22225-0.03175 0.45508-0.0635z"/>
  <path d="m42.623 7.1994q0.16933 0 0.1905 0.10583 0.02117 0.09525-0.04233 0.22225-0.05292 0.11642-0.15875 0.22225-0.09525 0.10583-0.16933 0.127-0.03175 0.01058-0.14817 0.01058t-0.30692 0q-0.1905-0.01058-0.4445-0.01058-0.24342-0.01058-0.51858-0.02117-0.02117 0.6985-0.05292 1.4817-0.02117 0.78317-0.04233 1.5452-0.01058 0.762-0.02117 1.4605-0.01058 0.68792-0.01058 1.2171t0.01058 0.84667q0.02117 0.30692 0.05292 0.30692 0.11642 0.01058 0.23283-0.15875 0.127-0.16933 0.23283-0.42333 0.11642-0.254 0.22225-0.55033 0.10583-0.29633 0.17992-0.55033 0.08467-0.254 0.13758-0.42333 0.05292-0.16933 0.0635-0.16933t0.05292 0.01058q0.05292 0 0.10583 0.01058 0.05292 0 0.09525 0.02117 0.04233 0.01058 0.04233 0.04233 0 0.02117-0.0635 0.24342-0.05292 0.22225-0.15875 0.55033-0.09525 0.3175-0.254 0.6985-0.14817 0.37042-0.34925 0.68792-0.1905 0.30692-0.42333 0.51858-0.22225 0.20108-0.48683 0.1905-0.17992 0-0.30692-0.10583-0.11642-0.10583-0.1905-0.24342-0.0635-0.14817-0.09525-0.30692-0.04233-0.15875-0.04233-0.27517 0-0.05292 0.01058-0.37042 0-0.32808 0.02117-0.83608 0.01058-0.508 0.03175-1.1642 0.01058-0.65617 0.03175-1.3758t0.03175-1.4605q0.02117-0.75142 0.03175-1.4393-0.508-0.02117-0.98425-0.02117-0.47625-0.01058-0.84667 0.01058-0.05292 0-0.04233-0.05292 0.01058-0.05292 0.05292-0.10583 0.03175-0.0635 0.09525-0.10583 0.05292-0.04233 0.10583-0.04233 0.22225-0.01058 0.48683-0.03175 0.22225-0.02117 0.51858-0.04233 0.29633-0.02117 0.62442-0.05292 0-0.45508 0-0.85725 0.01058-0.40217 0-0.71967 0-0.32808-0.01058-0.56092-0.01058-0.23283-0.02117-0.34925-0.01058-0.0635 0.15875-0.09525 0.16933-0.03175 0.35983-0.01058 0.20108 0.01058 0.35983 0.10583 0.16933 0.09525 0.14817 0.28575-0.01058 0.04233-0.03175 0.635-0.02117 0.59267-0.05292 1.4922 0.3175-0.02117 0.59267-0.04233 0.28575-0.02117 0.49742-0.03175 0.22225-0.02117 0.34925-0.03175 0.13758-0.01058 0.14817-0.01058z"/>
  <path d="m43.393 9.3372q0.3175-0.03175 0.55033 0.04233 0.23283 0.07408 0.40217 0.21167 0.16933 0.127 0.27517 0.29633 0.11642 0.16933 0.16933 0.33867 0.0635 0.16933 0.08467 0.3175 0.02117 0.13758 0.01058 0.21167-0.02117 0.14817-0.127 0.33867-0.10583 0.1905-0.23283 0.33867-0.127 0.13758-0.24342 0.1905-0.10583 0.04233-0.13758-0.08467-0.02117-0.08467-0.01058-0.26458 0.02117-0.17992 0.03175-0.39158 0.02117-0.21167 0.01058-0.43392 0-0.22225-0.0635-0.39158-0.0635-0.16933-0.20108-0.26458-0.13758-0.10583-0.381-0.07408-0.13758 0.02117-0.21167 0.15875-0.07408 0.13758-0.09525 0.32808-0.02117 0.17992-0.01058 0.381 0.01058 0.1905 0.05292 0.3175 0.09525 0.33867 0.32808 0.635 0.23283 0.29633 0.49742 0.61383 0.26458 0.30692 0.49742 0.64558 0.23283 0.32808 0.32808 0.74083 0.05292 0.20108 0.02117 0.52917-0.02117 0.3175-0.1905 0.635-0.16933 0.3175-0.508 0.55033-0.33867 0.23283-0.89958 0.254-0.45508 0.02117-0.77258-0.10583-0.3175-0.13758-0.51858-0.35983-0.20108-0.23283-0.29633-0.51858-0.10583-0.29633-0.13758-0.59267-0.03175-0.30692-0.01058-0.58208 0.01058-0.28575 0.05292-0.49742 0.0635-0.3175 0.254-0.47625 0.20108-0.15875 0.39158-0.17992 0.20108-0.03175 0.32808 0.05292t0.05292 0.24342q-0.17992 0.35983-0.21167 0.78317t0.05292 0.80433 0.28575 0.65617q0.20108 0.26458 0.48683 0.30692 0.20108 0.03175 0.35983-0.05292 0.16933-0.08467 0.27517-0.23283 0.11642-0.15875 0.16933-0.34925 0.05292-0.20108 0.03175-0.381-0.04233-0.33867-0.28575-0.6985-0.24342-0.35983-0.53975-0.70908-0.28575-0.35983-0.5715-0.6985-0.27517-0.33866-0.39159-0.64558-0.11642-0.29633-0.11642-0.62442 0.01058-0.32808 0.13758-0.60325 0.13758-0.27517 0.39158-0.46567 0.254-0.20108 0.635-0.24342z"/>
  <path d="m47.303 9.4854q0.42333-0.04233 0.68792 0.21167 0.27517 0.254 0.42333 0.64558 0.15875 0.39158 0.20108 0.84667 0.05292 0.45508 0.02117 0.8255-0.07408 0.79375-0.30692 1.2488-0.22225 0.45508-0.508 0.6985-0.27517 0.23283-0.56092 0.29633t-0.45508 0.0635q0.14817 0.40217 0.34925 0.53975 0.20108 0.127 0.29633 0.10583 0.27517-0.02117 0.508-0.16933 0.23283-0.15875 0.41275-0.39158 0.1905-0.24342 0.32808-0.52917 0.14817-0.28575 0.254-0.56092 0.10583-0.27517 0.15875-0.508 0.0635-0.24342 0.09525-0.381 0.02117-0.05292 0.15875-0.04233 0.13758 0 0.15875 0.10583 0 0.03175-0.05292 0.26458-0.05292 0.22225-0.16933 0.55033-0.11642 0.3175-0.29633 0.68792-0.17992 0.35983-0.43392 0.67733-0.24342 0.30692-0.5715 0.52917-0.3175 0.21167-0.70908 0.23283-0.34925 0.02117-0.60325-0.11642-0.254-0.14817-0.42333-0.37042-0.16933-0.23283-0.28575-0.508-0.10583-0.28575-0.15875-0.53975-0.05292-0.26458-0.07408-0.45508-0.02117-0.20108-0.02117-0.27517 0-0.14817 0.01058-0.46567t0.05292-0.70908q0.05292-0.40217 0.14817-0.8255 0.10583-0.43392 0.28575-0.79375 0.17992-0.37042 0.43392-0.61383 0.26458-0.24342 0.64558-0.27517zm-0.65617 3.6407q-0.01058 0.28575 0.01058 0.51858 0.02117 0.23283 0.0635 0.41275 0.127 0.01058 0.3175-0.03175 0.20108-0.04233 0.39158-0.23283 0.1905-0.20108 0.33867-0.60325 0.14817-0.40217 0.1905-1.1218 0.05292-1.1536-0.11642-1.6828-0.16933-0.53975-0.508-0.47625-0.10583 0.02117-0.1905 0.20108-0.08467 0.17992-0.16933 0.46567-0.07408 0.27517-0.13758 0.62442-0.05292 0.33867-0.09525 0.6985-0.04233 0.34925-0.07408 0.67733-0.02117 0.3175-0.02117 0.55033z"/>
  <path d="m50.904 9.75q0.09525-0.01058 0.23283-0.07408 0.13758-0.0635 0.28575-0.10583 0.14817-0.05292 0.29633-0.04233 0.15875 0.01058 0.27517 0.14817 0.05292 0.0635 0.10583 0.16933 0.05292 0.10583 0.08467 0.22225 0.03175 0.10583 0.02117 0.21167 0 0.09525-0.0635 0.14817-0.0635 0.05292-0.13758 0.32808-0.0635 0.26458-0.07408 0.61383 0 0.34925 0.09525 0.71967 0.10583 0.37042 0.381 0.62442 0.05292 0.05292 0.01058 0.14817-0.04233 0.09525-0.14817 0.17992-0.10583 0.08467-0.26458 0.14817-0.15875 0.0635-0.32808 0.04233-0.16933-0.02117-0.33867-0.14817-0.15875-0.127-0.28575-0.40217-0.127-0.27517-0.127-0.66675 0.01058-0.39158 0.05292-0.762 0.04233-0.37042 0.09525-0.635 0.05292-0.27517 0.02117-0.29633-0.04233-0.03175-0.127 0.11642-0.08467 0.14817-0.20108 0.42333-0.11642 0.26458-0.24342 0.635-0.11642 0.35983-0.22225 0.75142-0.10583 0.39158-0.1905 0.79375-0.08467 0.40217-0.11642 0.74083 0 0.47625 0.01058 0.85725 0.02117 0.381 0.0635 0.65617 0.01058 0.0635-0.15875 0.09525-0.15875 0.03175-0.35983 0.02117-0.20108-0.02117-0.35983-0.11642-0.15875-0.09525-0.13758-0.28575 0-0.03175 0.02117-0.55033 0.02117-0.51858 0.04233-1.3335h-0.01058q0.03175-0.92075 0.04233-1.4711 0.01058-0.56092 0-0.91017t-0.03175-0.58208q-0.02117-0.23283-0.0635-0.51858-0.01058-0.0635 0.14817-0.09525 0.15875-0.03175 0.34925-0.01058 0.20108 0.01058 0.35983 0.10583 0.16933 0.09525 0.15875 0.28575-0.02117 0.508-0.03175 0.97367-0.01058 0.46567-0.02117 0.91017 0.10583-0.381 0.23283-0.74083 0.13758-0.37042 0.254-0.65617 0.127-0.29633 0.23283-0.47625 0.10583-0.17992 0.16933-0.1905z"/>
  <path d="m53.015 10.692q-0.01058-0.30692-0.03175-0.55033-0.02117-0.254-0.04233-0.45508-0.01058-0.0635 0.15875-0.09525 0.16933-0.03175 0.35983-0.01058 0.20108 0.01058 0.35983 0.10583 0.16933 0.09525 0.14817 0.28575 0.04233 0.30692 0.01058 0.80433-0.02117 0.49742-0.0635 1.0583-0.04233 0.55033-0.07408 1.1007-0.02117 0.55033 0.03175 0.99483 0.05292 0.43392 0.21167 0.68792 0.16933 0.254 0.49742 0.20108 0.22225-0.03175 0.381-0.27517 0.16933-0.254 0.27517-0.58208 0.11642-0.32808 0.1905-0.66675 0.07408-0.34925 0.11642-0.5715 0.01058-0.5715 0.01058-1.1007 0-0.53975 0-0.97367 0-0.4445 0-0.77258 0.01058-0.33867 0.02117-0.51858 0-0.0635 0.14817-0.05292 0.14817 0.01058 0.3175 0.0635 0.16933 0.05292 0.30692 0.14817 0.13758 0.08467 0.127 0.15875 0 0.04233 0.01058 0.46567 0.01058 0.41275 0.01058 1.0795 0.01058 0.66675 0 1.5028-0.01058 0.8255-0.04233 1.6933t-0.10583 1.6828q-0.0635 0.8255-0.17992 1.4711-0.09525 0.53975-0.30692 0.86783-0.20108 0.33867-0.46567 0.51858-0.254 0.17992-0.53975 0.24342-0.27517 0.0635-0.51858 0.0635-0.41275 0.01058-0.68792-0.15875-0.27517-0.16933-0.4445-0.43392-0.16933-0.254-0.24342-0.5715-0.07408-0.30692-0.10583-0.59267-0.02117-0.28575 0-0.49742 0.01058-0.20108 0.02117-0.254 0.02117-0.08467 0.17992-0.15875 0.15875-0.07408 0.33867-0.11642 0.1905-0.04233 0.32808-0.04233 0.13758 0 0.127 0.0635-0.0635 0.45508-0.10583 0.889-0.04233 0.4445 0.01058 0.78317 0.0635 0.34925 0.24342 0.55033 0.17992 0.21167 0.56092 0.1905 0.254-0.01058 0.42333-0.43392 0.16933-0.41275 0.27517-1.0795 0.11642-0.66675 0.16933-1.524 0.0635-0.85725 0.09525-1.7462-0.09525 0.254-0.24342 0.508-0.13758 0.24342-0.32808 0.43392t-0.43392 0.30692q-0.24342 0.11642-0.53975 0.11642-0.41275-0.01058-0.64558-0.26458-0.23283-0.26458-0.34925-0.67733-0.10583-0.42333-0.127-0.94192-0.01058-0.51858 0.02117-1.0478 0.03175-0.52917 0.07408-1.016 0.05292-0.49742 0.0635-0.85725z"/>
 </g>
 <g transform="matrix(.2881 0 0 .2881 -1.5595 -4.4054)" fill="#062743" fill-opacity=".94118" featurekey="symbol1">
  <g fill="#062743" fill-opacity=".94118">
   <g display="none">
    <path d="m-1013-900.29h1282v1265.3h-1282z" display="inline" fill="#062743" fill-opacity=".94118"/>
   </g>
   <g fill="#062743" fill-opacity=".94118">
    <path d="m69.146 32.768c0.84-4.095 1.729-9.951 0.619-12.523-0.897-2.079-2.553-3.598-4.504-4.373-0.957-0.38-1.986-0.581-3.031-0.581-1.085 0-2.187 0.216-3.246 0.673-4.159 1.795-6.075 6.621-4.28 10.78 0.545 1.262 1.997 2.716 3.754 4.13l1.59 0.631 2.65 1.052 5.331 2.117c0.318-0.557 0.695-1.203 1.117-1.906zm-4.238-4.711-0.365-0.145-2.65-1.052-0.858-0.34c-1.308-1.113-1.692-1.689-1.758-1.798-0.668-1.611 0.082-3.472 1.689-4.166 0.406-0.175 0.832-0.264 1.265-0.264 0.405 0 0.804 0.077 1.186 0.228 0.78 0.31 1.396 0.9 1.739 1.664 0.045 0.174 0.372 1.643-0.248 5.873z"/>
    <path d="m83.752 23.837c-1.084 0-2.187 0.216-3.246 0.673-2.572 1.11-5.942 5.981-8.14 9.537-0.174 0.801-0.344 1.53-0.495 2.154l5.331 2.117 2.65 1.052 1.59 0.631c0.715 0.056 1.41 0.088 2.066 0.088 1.408 0 2.638-0.147 3.499-0.518 4.159-1.795 6.075-6.621 4.28-10.78-0.897-2.079-2.553-3.598-4.504-4.373-0.958-0.381-1.986-0.581-3.031-0.581zm1.316 11.123c-0.094 0.025-0.545 0.128-1.561 0.128-0.295 0-0.614-9e-3 -0.953-0.026l-0.857-0.34-2.65-1.052-0.365-0.145c2.45-3.502 3.696-4.347 3.849-4.443 0.393-0.163 0.804-0.246 1.221-0.246 0.405 0 0.804 0.077 1.186 0.228 0.795 0.316 1.419 0.922 1.758 1.707 0.693 1.607-0.037 3.475-1.628 4.189z"/>
    <path transform="matrix(.369 -.9294 .9294 .369 -25.825 81.856)" d="m34.651 49.504h25.447v20.888h-25.447z"/>
    <path d="m66.934 38.988 0.538-1.354-22.659-8.997-4.322 10.886 22.658 8.997z"/>
    <path d="m70.391 40.361-3.785 9.531 22.658 8.997 4.323-10.886-22.659-8.997z"/>
    <path transform="matrix(-.9294 -.369 .369 -.9294 110.06 159.11)" d="m59.801 56.305h20.888v25.447h-20.888z"/>
    <path d="m13.22 43.963h13.61c1.314 0 2.38-1.066 2.38-2.38s-1.066-2.38-2.38-2.38h-13.61c-1.314 0-2.38 1.066-2.38 2.38s1.065 2.38 2.38 2.38z"/>
    <path d="m21.403 49.158h-13.61c-1.314 0-2.38 1.066-2.38 2.38s1.066 2.38 2.38 2.38h13.61c1.314 0 2.38-1.066 2.38-2.38s-1.065-2.38-2.38-2.38z"/>
    <path d="m13.22 65.076h13.61c1.314 0 2.38-1.066 2.38-2.38s-1.066-2.38-2.38-2.38h-13.61c-1.314 0-2.38 1.066-2.38 2.38 0 1.315 1.065 2.38 2.38 2.38z"/>
   </g>
  </g>
 </g>
 <g transform="matrix(.3629 0 0 .3629 32.661 10.161)" fill="#062743" fill-opacity=".94118" featurekey="text1"></g>
</svg>
