<?xml version="1.0" encoding="UTF-8" standalone="no"?>
<!-- Created with Inkscape (http://www.inkscape.org/) -->

<svg
   xmlns:dc="http://purl.org/dc/elements/1.1/"
   xmlns:cc="http://creativecommons.org/ns#"
   xmlns:rdf="http://www.w3.org/1999/02/22-rdf-syntax-ns#"
   xmlns:svg="http://www.w3.org/2000/svg"
   xmlns="http://www.w3.org/2000/svg"
   xmlns:xlink="http://www.w3.org/1999/xlink"
   xmlns:sodipodi="http://sodipodi.sourceforge.net/DTD/sodipodi-0.dtd"
   xmlns:inkscape="http://www.inkscape.org/namespaces/inkscape"
   width="62mm"
   height="61.999935mm"
   viewBox="0 0 62 61.999935"
   version="1.1"
   id="svg1355"
   inkscape:version="0.92.3 (2405546, 2018-03-11)"
   sodipodi:docname="icon.svg">
  <defs
     id="defs1349">
    <linearGradient
       inkscape:collect="always"
       xlink:href="#linearGradient1078"
       id="linearGradient1080"
       x1="130.40179"
       y1="340.08929"
       x2="27.025295"
       y2="440.63095"
       gradientUnits="userSpaceOnUse"
       gradientTransform="translate(-75.028276,-359.83331)" />
    <linearGradient
       inkscape:collect="always"
       id="linearGradient1078">
      <stop
         style="stop-color:#14334c;stop-opacity:0.99607843"
         offset="0"
         id="stop1074" />
      <stop
         style="stop-color:#fff226;stop-opacity:1"
         offset="1"
         id="stop1076" />
    </linearGradient>
  </defs>
  <sodipodi:namedview
     id="base"
     pagecolor="#ffffff"
     bordercolor="#666666"
     borderopacity="1.0"
     inkscape:pageopacity="0.0"
     inkscape:pageshadow="2"
     inkscape:zoom="2.8"
     inkscape:cx="153.79512"
     inkscape:cy="7.7222251"
     inkscape:document-units="mm"
     inkscape:current-layer="layer1"
     showgrid="false"
     fit-margin-top="0"
     fit-margin-left="0"
     fit-margin-right="0"
     fit-margin-bottom="0"
     inkscape:window-width="3840"
     inkscape:window-height="2004"
     inkscape:window-x="-16"
     inkscape:window-y="-16"
     inkscape:window-maximized="1" />
  <metadata
     id="metadata1352">
    <rdf:RDF>
      <cc:Work
         rdf:about="">
        <dc:format>image/svg+xml</dc:format>
        <dc:type
           rdf:resource="http://purl.org/dc/dcmitype/StillImage" />
        <dc:title></dc:title>
      </cc:Work>
    </rdf:RDF>
  </metadata>
  <g
     inkscape:label="Layer 1"
     inkscape:groupmode="layer"
     id="layer1"
     transform="translate(1.5178561,26.553539)">
    <path
       inkscape:connector-curvature="0"
       id="path964-1"
       d="m 6.9299839,35.35967 c -3.9698999,-0.520139 -7.04031005,-3.227819 -8.17165,-7.2063 l -0.27588,-0.97014 -1.6e-4,-12.308678 -1.5e-4,-12.308682 0.33547,-1.068049 c 1.17698995,-3.74732 3.80596,-6.13082 7.64311,-6.92946 0.3267602,-0.068 0.32708,-0.0691 0.14239,-0.51052 -0.2639499,-0.6308 -0.5305999,-2.12213 -0.5305999,-2.96754 0,-1.1625 0.33274,-2.49582 0.93276,-3.737631 0.4649599,-0.962289 0.7219,-1.313949 1.6018399,-2.192389 1.7095801,-1.706661 3.5728001,-2.478291 5.9666101,-2.471011 1.59947,0.005 2.49105,0.228321 4.06844,1.01967 1.91393,0.96017 3.71293,2.320401 6.70516,5.069771 1.004319,0.9228 1.49157,1.29959 1.4898,1.15204 -0.005,-0.4463 -0.475548,-2.31421 -0.84887,-3.372221 -1.40457,-3.980599 -3.8329,-6.700219 -7.33075,-8.21007 -1.5129,-0.65304 -2.00049,-1.139869 -2.1903,-2.186839 -0.11209,-0.61821 0.10612,-1.34435 0.55858,-1.858921 0.69823,-0.79408 1.60513,-1.04415 2.59447,-0.71538 3.7394,1.2426 7.377999,4.347811 9.408861,8.029551 0.156358,0.28346 0.316889,0.51538 0.356738,0.51538 0.0399,0 0.281361,-0.42291 0.53667,-0.93981 0.93159,-1.886 2.628842,-4.20791 3.337412,-4.565721 0.88183,-0.445309 1.908739,-0.322899 2.63534,0.31413 0.495038,0.434011 0.715298,0.821041 0.831249,1.460631 0.12381,0.68287 -0.107169,1.31849 -0.81231,2.2353 -1.295688,1.68464 -2.065398,3.170539 -2.75345,5.31541 -0.29935,0.93316 -0.977389,3.81169 -0.977389,4.14936 0,0.0294 0.587488,-0.49063 1.305549,-1.1557 3.00445,-2.78279 4.951219,-4.261901 6.892049,-5.2364 1.576832,-0.79174 2.468462,-1.01531 4.068443,-1.020181 1.529559,-0.004 2.43604,0.209831 3.886268,0.919561 0.82554,0.40401 1.242201,0.714739 2.08034,1.55145 0.87994,0.87844 1.13688,1.2301 1.601851,2.192389 0.600009,1.241811 0.932759,2.575131 0.932759,3.737631 0,0.84541 -0.26666,2.33674 -0.530608,2.96754 -0.18469,0.44138 -0.184381,0.44251 0.142388,0.51052 2.16404,0.45041 3.95006,1.41168 5.312539,2.85931 1.158352,1.23072 1.818791,2.39453002 2.300222,4.0534 l 0.305099,1.0513 v 6.35902 c 0,6.90675 0.02151,6.677401 -0.68747,7.332599 -0.747329,0.69065 0.132961,0.64884 -14.402189,0.684361 l -13.450131,0.0329 v 6.849059 6.84906 h 9.87883 c 9.383102,0 9.91243,-0.01159 10.548329,-0.23001 2.025902,-0.695989 3.212251,-2.28727 3.424553,-4.593429 0.0793,-0.860901 0.262469,-1.280152 0.760597,-1.740511 0.530622,-0.490381 0.892173,-0.631269 1.620012,-0.631269 0.92868,0 1.713299,0.469199 2.13614,1.27739 0.2598,0.49658 0.221089,2.289238 -0.0743,3.442758 -0.885999,3.459361 -3.398721,5.975162 -6.980362,6.988881 l -0.971568,0.27499 -22.28532,0.01691 C 17.740464,35.45408 7.360144,35.41598 6.9300241,35.35958 Z M 27.082645,23.791592 v -6.847771 l -8.653021,-0.0342 c -9.5162701,-0.0376 -8.9708001,0.006 -9.7008301,-0.781259 -0.49109,-0.529842 -0.6321899,-0.89086 -0.6321899,-1.61762 0,-0.726771 0.1410999,-1.0878 0.6321899,-1.617631 0.73003,-0.78762 0.18456,-0.743691 9.7008301,-0.78127 l 8.653021,-0.0342 v -6.42334 -6.42332998 h -9.878831 c -9.4111101,0 -9.9107699,0.0109 -10.5537601,0.23187 -1.5471698,0.531531 -2.60692,1.59091998 -3.14047,3.13943098 -0.21991,0.63827 -0.2303299,1.196199 -0.2303299,12.33288 0,11.16975 0.0103,11.692929 0.23221,12.338309 0.5240399,1.52092 1.5828,2.59039 3.0973501,3.128679 0.5757698,0.20465 1.2872598,0.220052 10.5456299,0.22832 l 9.928201,0.009 z M 55.743885,7.67811 c 0,-4.023911 -0.02019,-4.465918 -0.232211,-5.081238 -0.532299,-1.544903 -1.593271,-2.60308998 -3.144031,-3.13586098 -0.635899,-0.21846 -1.165227,-0.23 -10.548329,-0.23 h -9.87883 V 5.658212 12.085401 h 11.9017 11.901701 z M 23.496194,-6.357129 c -2.31447,-2.35459 -5.40283,-4.86486 -6.94977,-5.64889 -1.63958,-0.83099 -3.18264,-0.68777 -4.40405,0.408779 -0.71089,0.638221 -1.02388,1.184601 -1.18471,2.068171 -0.23505,1.29136 0.30469,2.75077 1.30009,3.51526 l 0.51317,0.39411 h 5.72506 5.72508 z m 23.269191,0.34332 c 0.995389,-0.76449 1.535139,-2.2239 1.300088,-3.51526 -0.160829,-0.88357 -0.473818,-1.42995 -1.184709,-2.068171 -1.221419,-1.096549 -2.764469,-1.239769 -4.40405,-0.408779 -1.54727,0.7842 -4.59631,3.25712 -6.88934,5.5876 l -0.785889,0.79872 h 5.725369 5.725361 z"
       style="fill:url(#linearGradient1080);fill-opacity:1;stroke-width:0.1213568"
       inkscape:export-filename="C:\Users\ecmug\Documents\GiftseryProject\Giftsery\assets\icon.png"
       inkscape:export-xdpi="81.935585"
       inkscape:export-ydpi="81.935585" />
  </g>
</svg>
