<?xml version="1.0" encoding="UTF-8"?>
<!-- Created with Inkscape (http://www.inkscape.org/) -->
<svg width="25.403mm" height="20mm" version="1.1" viewBox="0 0 25.403 20" xmlns="http://www.w3.org/2000/svg" xmlns:cc="http://creativecommons.org/ns#" xmlns:dc="http://purl.org/dc/elements/1.1/" xmlns:osb="http://www.openswatchbook.org/uri/2009/osb" xmlns:rdf="http://www.w3.org/1999/02/22-rdf-syntax-ns#">
 <metadata>
  <rdf:RDF>
   <cc:Work rdf:about="">
    <dc:format>image/svg+xml</dc:format>
    <dc:type rdf:resource="http://purl.org/dc/dcmitype/StillImage"/>
    <dc:title/>
   </cc:Work>
  </rdf:RDF>
 </metadata>
 <rect x="-39.37" y="28.197" width="140.05" height="140.05" fill="#f7ed29" fill-rule="evenodd" stroke-width=".26458"/>
 <g transform="matrix(.3629 0 0 .3629 -4.4349 77.233)" fill="#062743" fill-opacity=".94118">
  <g transform="matrix(.79388 0 0 .79388 5.7027 -2.1393)" featurekey="symbol1">
   <g fill="#062743" fill-opacity=".94118">
    <g display="none">
     <rect x="-1013" y="-900.29" width="1282" height="1265.3" display="inline" fill="#062743" fill-opacity=".94118"/>
    </g>
    <g fill="#062743" fill-opacity=".94118">
     <path d="m69.146 32.768c0.84-4.095 1.729-9.951 0.619-12.523-0.897-2.079-2.553-3.598-4.504-4.373-0.957-0.38-1.986-0.581-3.031-0.581-1.085 0-2.187 0.216-3.246 0.673-4.159 1.795-6.075 6.621-4.28 10.78 0.545 1.262 1.997 2.716 3.754 4.13l1.59 0.631 2.65 1.052 5.331 2.117c0.318-0.557 0.695-1.203 1.117-1.906zm-4.238-4.711-0.365-0.145-2.65-1.052-0.858-0.34c-1.308-1.113-1.692-1.689-1.758-1.798-0.668-1.611 0.082-3.472 1.689-4.166 0.406-0.175 0.832-0.264 1.265-0.264 0.405 0 0.804 0.077 1.186 0.228 0.78 0.31 1.396 0.9 1.739 1.664 0.045 0.174 0.372 1.643-0.248 5.873z"/>
     <path d="m83.752 23.837c-1.084 0-2.187 0.216-3.246 0.673-2.572 1.11-5.942 5.981-8.14 9.537-0.174 0.801-0.344 1.53-0.495 2.154l5.331 2.117 2.65 1.052 1.59 0.631c0.715 0.056 1.41 0.088 2.066 0.088 1.408 0 2.638-0.147 3.499-0.518 4.159-1.795 6.075-6.621 4.28-10.78-0.897-2.079-2.553-3.598-4.504-4.373-0.958-0.381-1.986-0.581-3.031-0.581zm1.316 11.123c-0.094 0.025-0.545 0.128-1.561 0.128-0.295 0-0.614-9e-3 -0.953-0.026l-0.857-0.34-2.65-1.052-0.365-0.145c2.45-3.502 3.696-4.347 3.849-4.443 0.393-0.163 0.804-0.246 1.221-0.246 0.405 0 0.804 0.077 1.186 0.228 0.795 0.316 1.419 0.922 1.758 1.707 0.693 1.607-0.037 3.475-1.628 4.189z"/>
     <rect transform="matrix(.369 -.9294 .9294 .369 -25.825 81.856)" x="34.651" y="49.504" width="25.447" height="20.888"/>
     <polygon points="66.934 38.988 67.472 37.634 44.813 28.637 40.491 39.523 63.149 48.52"/>
     <polygon points="70.391 40.361 66.606 49.892 89.264 58.889 93.587 48.003 70.928 39.006"/>
     <rect transform="matrix(-.9294 -.369 .369 -.9294 110.06 159.11)" x="59.801" y="56.305" width="20.888" height="25.447"/>
     <path d="m13.22 43.963h13.61c1.314 0 2.38-1.066 2.38-2.38s-1.066-2.38-2.38-2.38h-13.61c-1.314 0-2.38 1.066-2.38 2.38s1.065 2.38 2.38 2.38z"/>
     <path d="m21.403 49.158h-13.61c-1.314 0-2.38 1.066-2.38 2.38s1.066 2.38 2.38 2.38h13.61c1.314 0 2.38-1.066 2.38-2.38s-1.065-2.38-2.38-2.38z"/>
     <path d="m13.22 65.076h13.61c1.314 0 2.38-1.066 2.38-2.38s-1.066-2.38-2.38-2.38h-13.61c-1.314 0-2.38 1.066-2.38 2.38 0 1.315 1.065 2.38 2.38 2.38z"/>
    </g>
   </g>
  </g>
  <g transform="translate(100,38)" featurekey="text1"></g>
 </g>
 <flowRoot transform="matrix(.26458 0 0 .26458 -59.461 -33.751)" fill="#143241" font-family="sans-serif" font-size="40px" letter-spacing="0px" word-spacing="0px" style="line-height:1.25" xml:space="preserve"><flowRegion><rect x="327.29" y="458.85" width="295.97" height="76.772" fill="#143241"/></flowRegion><flowPara font-family="'Beautiful People Personal Use'">Giftsery</flowPara></flowRoot>
 <g transform="matrix(.3629 0 0 .3629 -3.629 -3.629)" fill="#062743" fill-opacity=".94118">
  <g transform="matrix(.79388 0 0 .79388 5.7027 -2.1393)" featurekey="symbol1">
   <g fill="#062743" fill-opacity=".94118">
    <g display="none">
     <rect x="-1013" y="-900.29" width="1282" height="1265.3" display="inline" fill="#062743" fill-opacity=".94118"/>
    </g>
    <g fill="#062743" fill-opacity=".94118">
     <path d="m69.146 32.768c0.84-4.095 1.729-9.951 0.619-12.523-0.897-2.079-2.553-3.598-4.504-4.373-0.957-0.38-1.986-0.581-3.031-0.581-1.085 0-2.187 0.216-3.246 0.673-4.159 1.795-6.075 6.621-4.28 10.78 0.545 1.262 1.997 2.716 3.754 4.13l1.59 0.631 2.65 1.052 5.331 2.117c0.318-0.557 0.695-1.203 1.117-1.906zm-4.238-4.711-0.365-0.145-2.65-1.052-0.858-0.34c-1.308-1.113-1.692-1.689-1.758-1.798-0.668-1.611 0.082-3.472 1.689-4.166 0.406-0.175 0.832-0.264 1.265-0.264 0.405 0 0.804 0.077 1.186 0.228 0.78 0.31 1.396 0.9 1.739 1.664 0.045 0.174 0.372 1.643-0.248 5.873z"/>
     <path d="m83.752 23.837c-1.084 0-2.187 0.216-3.246 0.673-2.572 1.11-5.942 5.981-8.14 9.537-0.174 0.801-0.344 1.53-0.495 2.154l5.331 2.117 2.65 1.052 1.59 0.631c0.715 0.056 1.41 0.088 2.066 0.088 1.408 0 2.638-0.147 3.499-0.518 4.159-1.795 6.075-6.621 4.28-10.78-0.897-2.079-2.553-3.598-4.504-4.373-0.958-0.381-1.986-0.581-3.031-0.581zm1.316 11.123c-0.094 0.025-0.545 0.128-1.561 0.128-0.295 0-0.614-9e-3 -0.953-0.026l-0.857-0.34-2.65-1.052-0.365-0.145c2.45-3.502 3.696-4.347 3.849-4.443 0.393-0.163 0.804-0.246 1.221-0.246 0.405 0 0.804 0.077 1.186 0.228 0.795 0.316 1.419 0.922 1.758 1.707 0.693 1.607-0.037 3.475-1.628 4.189z"/>
     <rect transform="matrix(.369 -.9294 .9294 .369 -25.825 81.856)" x="34.651" y="49.504" width="25.447" height="20.888"/>
     <polygon points="63.149 48.52 66.934 38.988 67.472 37.634 44.813 28.637 40.491 39.523"/>
     <polygon points="70.928 39.006 70.391 40.361 66.606 49.892 89.264 58.889 93.587 48.003"/>
     <rect transform="matrix(-.9294 -.369 .369 -.9294 110.06 159.11)" x="59.801" y="56.305" width="20.888" height="25.447"/>
     <path d="m13.22 43.963h13.61c1.314 0 2.38-1.066 2.38-2.38s-1.066-2.38-2.38-2.38h-13.61c-1.314 0-2.38 1.066-2.38 2.38s1.065 2.38 2.38 2.38z"/>
     <path d="m21.403 49.158h-13.61c-1.314 0-2.38 1.066-2.38 2.38s1.066 2.38 2.38 2.38h13.61c1.314 0 2.38-1.066 2.38-2.38s-1.065-2.38-2.38-2.38z"/>
     <path d="m13.22 65.076h13.61c1.314 0 2.38-1.066 2.38-2.38s-1.066-2.38-2.38-2.38h-13.61c-1.314 0-2.38 1.066-2.38 2.38 0 1.315 1.065 2.38 2.38 2.38z"/>
    </g>
   </g>
  </g>
  <g transform="translate(100,38)" featurekey="text1"></g>
 </g>
</svg>
